<?xml version="1.0" encoding="utf-8"?>
<!-- Generator: Adobe Illustrator 17.0.0, SVG Export Plug-In . SVG Version: 6.00 Build 0)  -->
<!DOCTYPE svg PUBLIC "-//W3C//DTD SVG 1.1//EN" "http://www.w3.org/Graphics/SVG/1.1/DTD/svg11.dtd">
<svg version="1.1" id="Layer_1" xmlns="http://www.w3.org/2000/svg" xmlns:xlink="http://www.w3.org/1999/xlink" x="0px" y="0px"
	 width="114.337px" height="109.049px" viewBox="0 0 114.337 109.049" enable-background="new 0 0 114.337 109.049"
	 xml:space="preserve">
<g>
	<g>
		<path fill="#4B3E68" d="M66.354,77.634c-0.207,2.999-3.28,4.836-7.808,4.836c-6.754,0-9.553-7.448-9.553-13.856
			c0-11.488,11.551-17.044,22.131-20.345c19.383-6.035,43.383-6.844,43.212-6.33c-1.227,3.68-17.34,3.602-34.941,8.246
			c-3.255,0.857-9.171,3.261-9.171,3.261s5.29,0.876,8.106,2.633c5.66,3.529,8.331,8.36,8.331,14.912
			c0,16.486-18.429,38.058-48.01,38.058C0.868,109.049,0,81.17,0,77.374c0-13.972,8.728-29.832,21.87-35.059l1.39-0.549
			l-0.479-1.416c-0.812-2.451-1.108-5.379-1.108-8.109C21.673,15.919,34.887,0,51.127,0c7.509,0,15.04,3.846,15.04,11.181
			c0,4.729-3.844,8.963-8.509,8.963c-0.412,0-0.77-0.007-1.073-0.038c-0.168-1.831,0.272-2.65,0.77-3.431
			c0.331-0.512,0.654-0.981,0.907-1.48c0.299-0.621,0.531-1.346,0.531-2.228c0-3.382-2.502-5.424-4.955-6.542
			c-2.496-1.134-5.432-1.57-7.464-1.57c-8.763,0-22.664,11.391-22.664,28.714c0,0.777,0,1.627,0.052,2.516
			c0.071,0.949,0.197,1.927,0.443,2.915l0.414,1.679l1.632-0.559c2.122-0.734,3.209-1.321,4.604-1.722
			c1.203-0.35,2.738-0.573,6.018-0.573c5.512,0,11.182,2.352,11.182,7.477c0,6.095-4.742,9.406-10.89,9.406
			c-5.652,0-10.858-4.85-13.249-10.197l-0.678-1.514l-1.477,0.741C12.26,48.491,7.673,58.435,7.673,68.91
			c0,20.58,15.663,37.214,36.621,37.214c16.13,0,37.657-12.166,37.657-31.123c0-9.797-5.326-16.43-15.688-16.43
			c-8.008,0-13.453,5.617-13.453,13.456c0,2.569,2.141,8.859,6.629,8.859c3.091,0,4.694-0.988,5.787-2.11l0.605-0.663L66.354,77.634
			z M37.914,52.375c3.367,0,6.183-3.358,6.183-6.482c0-5.652-4.622-6.63-8.262-6.63c-3.503,0-6.477,0.651-9.605,2.626l-1.016,0.637
			l0.343,1.153C27.425,49.96,31.71,52.375,37.914,52.375"/>
	</g>
</g>
</svg>
