<?xml version="1.0" encoding="utf-8"?>
<!-- Generator: Adobe Illustrator 17.0.0, SVG Export Plug-In . SVG Version: 6.00 Build 0)  -->
<!DOCTYPE svg PUBLIC "-//W3C//DTD SVG 1.1//EN" "http://www.w3.org/Graphics/SVG/1.1/DTD/svg11.dtd">
<svg version="1.1" id="Layer_1" xmlns="http://www.w3.org/2000/svg" xmlns:xlink="http://www.w3.org/1999/xlink" x="0px" y="0px"
	 width="75.062px" height="21.891px" viewBox="0 0 75.062 21.891" enable-background="new 0 0 75.062 21.891" xml:space="preserve">
<g>
	<g>
		<path fill="#211646" d="M21.233,2.383c-2.082,0.945-4.255,1.849-6.466,2.735c-0.219-0.281-0.459-0.559-0.727-0.832
			c-0.314-0.319-0.649-0.633-1.002-0.944c-0.418-0.369-1.677-0.046-1.26,0.322c0.693,0.611,1.372,1.249,1.853,1.907
			c-0.891,0.353-1.787,0.704-2.684,1.053C7.341,8.029,3.639,9.383,0.216,10.876c-0.667,0.291,0.365,0.742,1.032,0.452
			c3.357-1.465,6.985-2.794,10.524-4.171c0.762-0.297,1.522-0.595,2.28-0.893c0.45,0.904,0.748,1.821,0.904,2.743
			c0.32,1.889-0.107,3.737-0.841,5.596c-0.687,1.742-1.788,3.604-3.909,5.124c-0.88,0.632-1.932,1.453-3.863,1.424
			c-1.392-0.021-2.168-0.837-2.792-1.27c-0.499-0.348-1.763-0.028-1.26,0.322c0.771,0.536,1.468,1.163,2.835,1.452
			c1.521,0.321,3.355,0.036,4.482-0.464c0.671-0.297,1.202-0.693,1.717-1.043c0.612-0.414,1.087-0.853,1.523-1.307
			c0.869-0.905,1.543-1.844,2.073-2.797c1.079-1.94,1.635-3.937,1.599-5.932c-0.027-1.448-0.384-2.92-1.277-4.32
			c2.403-0.958,4.766-1.934,7.022-2.957C22.918,2.538,21.887,2.086,21.233,2.383"/>
	</g>
</g>
<g>
	<g>
		<path fill="#211646" d="M41.372,15.858c-0.165-0.505-1.03-0.922-1.625-1.341c-0.202-0.143-0.659-0.212-0.998-0.115
			c-0.752,0.215-1.22,0.493-1.46,0.872c-0.327,0.516-0.789,0.959-0.653,1.511c0.128,0.519,0.473,1,0.934,1.463
			c-0.262,0.097-0.557,0.185-0.898,0.26c-0.411,0.091-1.439,0.308-1.68,0.02c-0.202-0.241-0.026-0.552,0.026-0.8
			c0.075-0.363-0.246-0.712-0.28-1.071c-0.041-0.436-0.023-0.864-0.172-1.298c-0.092-0.268-1.079-0.316-1.333-0.076
			c-0.529,0.498-0.773,1.055-1.084,1.585c-0.073,0.123-0.148,0.245-0.225,0.368c-0.058-0.591-0.159-1.18-0.569-1.749
			c-0.11-0.154-0.486-0.263-0.842-0.232c0.045-0.337-1.147-0.441-1.441-0.087c-0.66,0.794-1.074,1.621-1.589,2.435
			c-0.353-0.796-0.84-1.564-2.153-2.193c-0.405-0.194-1.033-0.068-1.22,0.141c-0.291,0.324-0.44,0.676-0.539,1.034
			c-0.112,0.052-0.194,0.12-0.217,0.2c-0.16,0.556-0.546,1.121-0.905,1.658c-0.334,0.5-1.113,0.768-2.258,0.904
			c-0.492,0.058-1.105,0.087-1.603,0.033c-0.501-0.054-0.647-0.427-0.747-0.605c-0.019-0.035-0.037-0.07-0.054-0.106
			c0.518,0.099,1.198,0.096,1.674,0.04c0.759-0.088,1.589-0.307,2.06-0.581c0.513-0.299,0.798-0.654,0.661-1.028
			c-0.123-0.338-0.308-0.749-0.836-1.016c-0.546-0.276-1.255-0.344-2.054-0.323c-0.797,0.02-1.342-0.036-1.918,0.265l-0.002,0.001
			c-0.431-0.133-1.189-0.051-1.17,0.247c0.017,0.256,0.083,0.511,0.156,0.765c-0.169,0.397-0.17,0.814-0.13,1.2
			c0.071,0.687,0.455,1.675,2.343,1.787c1.588,0.095,3.391-0.167,4.463-0.698c-0.01,0.238-0.004,0.476,0.028,0.714
			c0.047,0.346,1.24,0.451,1.434,0.085c0.275-0.522,0.31-1.058,0.317-1.591c0.006-0.511,0.244-1.037,0.101-1.547
			c0.048-0.209,0.108-0.419,0.195-0.623c0.964,0.783,1.061,1.753,1.482,2.611c0.166,0.339,1.168,0.268,1.407,0
			c0.057-0.063,0.11-0.126,0.163-0.189c0.373,0.078,0.859,0.024,1.005-0.194c0.319-0.476,0.566-0.96,0.885-1.435
			c0.103-0.154,0.226-0.304,0.343-0.456c0.132,0.642,0.088,1.294,0.258,1.934c0.067,0.255,0.56,0.378,1.098,0.276
			c0.53-0.101,0.826-0.291,1.012-0.523c0.23-0.286,0.338-0.616,0.524-0.911c0.055-0.087,0.106-0.176,0.156-0.265
			c0.072,0.17,0.144,0.337,0.116,0.514c-0.03,0.197-0.096,0.391-0.096,0.589c0.001,0.375,0.326,0.683,1.044,0.89
			c0.804,0.232,1.947,0.038,2.724-0.11c0.369-0.071,0.701-0.156,1.001-0.252c0.267,0.22,0.55,0.438,0.84,0.655
			c0.473,0.356,1.735,0.035,1.26-0.322c-0.351-0.264-0.701-0.529-1.018-0.8c0.607-0.345,1.027-0.758,1.357-1.2
			C40.979,16.764,41.518,16.304,41.372,15.858 M19.473,16.395c0.621-0.016,0.911,0.133,1.041,0.388
			c0.149,0.291,0.378,0.519,0.064,0.807c-0.349,0.32-1.914,0.779-2.441,0.334c-0.269-0.226-0.214-0.557-0.307-0.806
			c-0.002-0.006-0.004-0.013-0.006-0.019c0.094-0.23,0.301-0.42,0.584-0.617C18.651,16.313,19.077,16.405,19.473,16.395
			 M39.322,16.926c-0.195,0.277-0.419,0.533-0.715,0.763c-0.185-0.216-0.338-0.438-0.443-0.667
			c-0.183-0.399-0.089-0.774,0.193-1.158c0.173-0.237,0.314-0.494,0.632-0.696c0.34,0.217,0.675,0.435,0.884,0.68
			C40.149,16.172,39.539,16.617,39.322,16.926"/>
	</g>
</g>
<g>
	<g>
		<path fill="#211646" d="M32.987,11.038c-0.941,0-0.941,0.639,0,0.639C33.928,11.677,33.928,11.038,32.987,11.038"/>
	</g>
</g>
<g>
	<g>
		<path fill="#211646" d="M74.704,13.38c-0.065-0.133-0.395-0.24-0.704-0.234c-1.049,0.02-1.847,0.249-2.375,0.643
			c-0.135,0.101-0.225,0.218-0.312,0.328c-0.085,0.107-0.311,0.199-0.47,0.289c-0.483,0.274-0.958,0.551-1.415,0.833
			c-0.821,0.507-1.608,1.026-2.411,1.539c-0.279,0.177-0.553,0.357-0.827,0.536c0.211-1.069,0.398-2.139,0.513-3.21
			c0.027-0.254-0.633-0.383-1.099-0.276c-0.376,0.086-0.511,0.32-0.654,0.478c-0.202,0.224-0.377,0.453-0.613,0.67
			c-0.098,0.091-0.197,0.145-0.322,0.297c-0.189,0.228-0.503,0.443-0.772,0.655c-0.426,0.336-0.83,0.618-1.489,0.846
			c-0.099-0.106-0.062-0.275-0.091-0.367c-0.072-0.227-0.149-0.449-0.246-0.674c-0.101-0.238-0.186-0.477-0.273-0.716
			c0.187-0.167,0.362-0.35,0.579-0.52c0.337-0.157,0.669-0.316,0.971-0.487c0.459-0.259-0.154-0.736-0.884-0.501
			c-0.051,0.016-0.098,0.033-0.146,0.051c-0.001-0.001-0.001-0.001-0.001-0.001c-0.004,0.001-0.007,0.003-0.01,0.004
			c-0.425,0.151-0.776,0.336-1.082,0.539l-0.002,0.001c-0.074-0.023-0.156-0.042-0.24-0.052c-0.514-0.063-0.987,0.021-1.214,0.237
			c-0.118,0.113-0.114,0.226-0.176,0.346c-0.086,0.167-0.241,0.328-0.389,0.487c-0.07,0.074-0.144,0.147-0.222,0.22
			c-0.137,0.1-0.27,0.202-0.4,0.304c0.271-0.386,0.5-0.778,0.728-1.167c0.603-1.031,1.153-2.066,1.601-3.113
			c0.935-2.18,1.197-4.38,1.629-6.585c0.07-0.358-1.278-0.437-1.433-0.085c-1.047,2.377-2.445,4.72-3.502,7.095
			c0.035-0.317,0.069-0.634,0.105-0.951c0.24-2.107,0.452-4.206,0.16-6.314c-0.057-0.409-1.517-0.412-1.46,0
			c0.236,1.705,0.175,3.412-0.012,5.116c-0.154-0.015-0.326-0.007-0.502,0.036c-1.998,0.485-4.019,0.951-6.036,1.421
			c-0.043-0.662-0.084-1.325-0.12-1.987c-0.212-3.933-0.036-4.868-0.19-8.802c-0.016-0.413-1.422-0.41-1.459,0
			c-0.387,4.24-0.666,5.481-1.326,9.715c-0.097,0.628-0.206,1.256-0.326,1.883c-0.792,0.19-1.582,0.383-2.365,0.58
			c-0.816,0.205-0.081,0.757,0.736,0.551c0.49-0.123,0.982-0.245,1.475-0.365c-0.256,1.219-0.566,2.436-0.961,3.65
			c-0.33,1.012-0.69,2.022-1.029,3.033c-0.151,0.449-0.381,0.908-0.442,1.361c-0.043,0.324-0.251,0.615-0.115,0.943
			c0.168,0.405,1.575,0.233,1.408-0.17c-0.11-0.265,0.1-0.586,0.187-0.85c0.161-0.494,0.326-0.988,0.492-1.481
			c0.342-1.014,0.704-2.027,1.027-3.042c0.404-1.268,0.714-2.54,0.969-3.815c0.216-0.051,0.432-0.102,0.649-0.153
			c0.059,0.878,0.12,1.756,0.178,2.633c0.063,0.967,0.121,1.933,0.167,2.899c0.046,0.98-0.001,1.957,0.152,2.936
			c0.063,0.409,1.523,0.411,1.459,0c-0.146-0.935-0.146-1.873-0.146-2.81c0-0.965-0.102-1.933-0.164-2.898
			c-0.067-1.033-0.14-2.066-0.209-3.098c2.14-0.501,4.288-0.995,6.412-1.507c-0.018,0.138-0.036,0.277-0.055,0.415
			c-0.141,1.026-0.23,2.054-0.342,3.08c-0.115,1.053-0.276,2.125-0.096,3.178c0.007,0.041,0.032,0.079,0.068,0.114
			c-0.012,0.052-0.024,0.105-0.036,0.157c-0.086,0.371-0.586,0.827,0.476,1.027c0.295,0.055,0.645,0.064,0.884-0.05
			c1.286-0.617,2.288-1.32,3.195-2.052c0.104-0.083,0.207-0.167,0.311-0.251c0.101,0.298,0.18,0.596,0.224,0.89
			c0.04,0.266,0.396,0.48,0.921,0.605c0.758,0.181,1.408-0.108,1.946-0.323c0.593-0.237,0.962-0.541,1.343-0.844
			c0.17-0.135,0.341-0.298,0.504-0.451c-0.143,0.861-0.316,1.722-0.495,2.583c-0.044,0.214,0.498,0.354,0.924,0.308
			c0.92-0.099,1.419-0.377,1.638-0.77c0.155-0.279,0.835-0.584,1.202-0.82c0.402-0.258,0.814-0.513,1.236-0.765
			c0.835-0.497,1.569-1.024,2.43-1.515c0.206-0.118,0.472-0.236,0.644-0.364c0.14-0.104,0.174-0.235,0.299-0.345
			c0.128-0.114,0.311-0.2,0.537-0.255c0.34,0.955,0.139,1.941,0.139,2.906c0,1.008,0.052,2.02-0.146,3.025
			c-0.08,0.41,1.38,0.407,1.46,0c0.205-1.045,0.146-2.097,0.146-3.145C75.022,15.549,75.23,14.456,74.704,13.38 M47.313,11.542
			c0.1-0.548,0.192-1.096,0.278-1.645c0.02-0.131,0.039-0.261,0.059-0.391c0.036,0.642,0.076,1.285,0.119,1.928
			C47.616,11.47,47.465,11.506,47.313,11.542 M59.298,9.987c-0.117,0.363-0.247,0.726-0.397,1.088
			c-0.336,0.811-0.735,1.617-1.182,2.417c0.239-0.625,0.507-1.248,0.788-1.867C58.756,11.077,59.023,10.532,59.298,9.987"/>
	</g>
</g>
</svg>
